<?xml version="1.0" encoding="UTF-8"?>
<svg xmlns="http://www.w3.org/2000/svg" xmlns:xlink="http://www.w3.org/1999/xlink" width="22pt" height="22pt" viewBox="0 0 22 22" version="1.1">
<g id="surface1">
<path style=" stroke:none;fill-rule:nonzero;fill:rgb(0%,0%,0%);fill-opacity:1;" d="M 11.050781 5.601562 C 9.605469 5.601562 8.253906 6.164062 7.238281 7.179688 C 6.222656 8.195312 5.660156 9.550781 5.660156 10.992188 C 5.660156 12.4375 6.222656 13.78125 7.238281 14.804688 C 8.253906 15.824219 9.613281 16.382812 11.050781 16.382812 C 12.492188 16.382812 13.847656 15.824219 14.863281 14.804688 C 15.878906 13.789062 16.441406 12.4375 16.441406 10.992188 C 16.441406 9.550781 15.878906 8.203125 14.863281 7.179688 C 13.847656 6.167969 12.492188 5.601562 11.050781 5.601562 Z M 11.050781 15.484375 C 8.5625 15.484375 6.558594 13.46875 6.558594 10.992188 C 6.558594 8.519531 8.5625 6.5 11.050781 6.5 C 13.539062 6.5 15.542969 8.515625 15.542969 10.992188 C 15.542969 13.46875 13.539062 15.484375 11.050781 15.484375 Z M 11.050781 15.484375 "/>
<path style=" stroke:none;fill-rule:nonzero;fill:rgb(0%,0%,0%);fill-opacity:1;" d="M 7.957031 1.277344 C 8.207031 1.648438 8.523438 1.972656 8.898438 2.234375 C 9.515625 2.667969 10.242188 2.898438 10.996094 2.898438 C 11.753906 2.898438 12.480469 2.667969 13.097656 2.234375 C 13.476562 1.972656 13.792969 1.648438 14.042969 1.277344 C 14.625 1.457031 15.1875 1.691406 15.726562 1.972656 C 15.640625 2.414062 15.636719 2.867188 15.714844 3.316406 C 15.847656 4.0625 16.199219 4.738281 16.734375 5.269531 C 17.425781 5.964844 18.347656 6.34375 19.328125 6.34375 C 19.566406 6.34375 19.800781 6.324219 20.03125 6.277344 C 20.3125 6.816406 20.546875 7.382812 20.726562 7.960938 C 20.355469 8.210938 20.03125 8.527344 19.769531 8.902344 C 19.339844 9.519531 19.109375 10.246094 19.109375 11.003906 C 19.109375 11.757812 19.339844 12.484375 19.769531 13.101562 C 20.03125 13.476562 20.355469 13.792969 20.726562 14.042969 C 20.546875 14.625 20.308594 15.1875 20.027344 15.726562 C 19.800781 15.683594 19.566406 15.660156 19.328125 15.660156 C 18.351562 15.660156 17.429688 16.042969 16.734375 16.734375 C 16.199219 17.269531 15.847656 17.941406 15.71875 18.6875 C 15.636719 19.136719 15.640625 19.589844 15.726562 20.027344 C 15.1875 20.3125 14.625 20.546875 14.042969 20.726562 C 13.792969 20.355469 13.476562 20.03125 13.101562 19.769531 C 12.484375 19.339844 11.757812 19.113281 11.003906 19.113281 C 10.246094 19.113281 9.523438 19.339844 8.902344 19.769531 C 8.53125 20.03125 8.210938 20.355469 7.960938 20.726562 C 7.382812 20.546875 6.816406 20.3125 6.277344 20.027344 C 6.363281 19.589844 6.367188 19.136719 6.289062 18.6875 C 6.15625 17.945312 5.804688 17.269531 5.269531 16.734375 C 4.574219 16.042969 3.65625 15.660156 2.675781 15.660156 C 2.4375 15.660156 2.203125 15.683594 1.976562 15.726562 C 1.691406 15.1875 1.457031 14.625 1.277344 14.042969 C 1.648438 13.792969 1.972656 13.476562 2.234375 13.101562 C 2.667969 12.484375 2.894531 11.757812 2.894531 11.003906 C 2.894531 10.246094 2.667969 9.519531 2.234375 8.902344 C 1.972656 8.527344 1.648438 8.210938 1.277344 7.960938 C 1.457031 7.378906 1.691406 6.816406 1.972656 6.277344 C 2.203125 6.324219 2.4375 6.347656 2.675781 6.347656 C 3.65625 6.347656 4.578125 5.964844 5.269531 5.273438 C 5.804688 4.738281 6.15625 4.0625 6.289062 3.320312 C 6.367188 2.871094 6.363281 2.414062 6.277344 1.976562 C 6.816406 1.691406 7.375 1.457031 7.957031 1.277344 M 13.585938 0.21875 C 13.1875 1.261719 12.179688 2 11 2 C 9.820312 2 8.8125 1.261719 8.414062 0.21875 C 7.265625 0.496094 6.183594 0.949219 5.207031 1.550781 C 5.660156 2.566406 5.46875 3.800781 4.632812 4.636719 C 4.09375 5.179688 3.382812 5.449219 2.675781 5.449219 C 2.289062 5.449219 1.90625 5.371094 1.546875 5.210938 C 0.949219 6.1875 0.496094 7.265625 0.21875 8.417969 C 1.257812 8.816406 1.996094 9.824219 1.996094 11.003906 C 1.996094 12.183594 1.261719 13.191406 0.222656 13.589844 C 0.496094 14.738281 0.949219 15.816406 1.554688 16.796875 C 1.910156 16.636719 2.292969 16.558594 2.675781 16.558594 C 3.386719 16.558594 4.09375 16.828125 4.636719 17.371094 C 5.46875 18.203125 5.660156 19.4375 5.210938 20.453125 C 6.1875 21.054688 7.269531 21.507812 8.417969 21.78125 C 8.816406 20.742188 9.824219 20.007812 11.003906 20.007812 C 12.179688 20.007812 13.1875 20.746094 13.585938 21.78125 C 14.734375 21.507812 15.816406 21.054688 16.792969 20.453125 C 16.34375 19.4375 16.535156 18.203125 17.367188 17.371094 C 17.910156 16.828125 18.617188 16.558594 19.328125 16.558594 C 19.710938 16.558594 20.09375 16.636719 20.453125 16.796875 C 21.050781 15.816406 21.507812 14.738281 21.78125 13.589844 C 20.742188 13.1875 20.007812 12.183594 20.007812 11.003906 C 20.007812 9.824219 20.742188 8.816406 21.785156 8.417969 C 21.507812 7.269531 21.054688 6.1875 20.457031 5.210938 C 20.097656 5.367188 19.710938 5.449219 19.328125 5.449219 C 18.617188 5.449219 17.910156 5.179688 17.367188 4.636719 C 16.535156 3.804688 16.34375 2.570312 16.796875 1.550781 C 15.816406 0.949219 14.734375 0.496094 13.585938 0.21875 Z M 13.585938 0.21875 "/>
</g>
</svg>
