<?xml version="1.0" encoding="UTF-8"?>
<svg xmlns="http://www.w3.org/2000/svg" xmlns:xlink="http://www.w3.org/1999/xlink" width="22pt" height="22pt" viewBox="0 0 22 22" version="1.1">
<g id="surface1">
<path style=" stroke:none;fill-rule:nonzero;fill:rgb(0%,0%,0%);fill-opacity:1;" d="M 21.082031 11.898438 L 0.917969 11.898438 C 0.410156 11.898438 0 11.488281 0 10.980469 C 0 10.476562 0.410156 10.0625 0.917969 10.0625 L 21.082031 10.0625 C 21.589844 10.0625 22 10.476562 22 10.980469 C 22 11.488281 21.589844 11.898438 21.082031 11.898438 Z M 21.082031 11.898438 "/>
<path style=" stroke:none;fill-rule:nonzero;fill:rgb(0%,0%,0%);fill-opacity:1;" d="M 21.082031 4.871094 L 0.917969 4.871094 C 0.410156 4.871094 0 4.460938 0 3.953125 C 0 3.445312 0.410156 3.035156 0.917969 3.035156 L 21.082031 3.035156 C 21.589844 3.035156 22 3.445312 22 3.953125 C 22 4.460938 21.589844 4.871094 21.082031 4.871094 Z M 21.082031 4.871094 "/>
<path style=" stroke:none;fill-rule:nonzero;fill:rgb(0%,0%,0%);fill-opacity:1;" d="M 21.082031 18.925781 L 0.917969 18.925781 C 0.410156 18.925781 0 18.515625 0 18.007812 C 0 17.503906 0.410156 17.09375 0.917969 17.09375 L 21.082031 17.09375 C 21.589844 17.09375 22 17.503906 22 18.007812 C 22 18.515625 21.589844 18.925781 21.082031 18.925781 Z M 21.082031 18.925781 "/>
</g>
</svg>
